<?xml version="1.0" standalone="no"?><!DOCTYPE svg PUBLIC "-//W3C//DTD SVG 1.1//EN" "http://www.w3.org/Graphics/SVG/1.1/DTD/svg11.dtd"><svg t="1585291512096" class="icon" viewBox="0 0 1024 1024" version="1.1" xmlns="http://www.w3.org/2000/svg" p-id="12195" xmlns:xlink="http://www.w3.org/1999/xlink" width="32" height="32"><defs><style type="text/css"></style></defs><path d="M866.56 960v-64H896a64 64 0 0 0 64-64V128a64 64 0 0 0-64-64H128a64 64 0 0 0-64 64v704a64 64 0 0 0 64 64h622.912v64H128a128 128 0 0 1-128-128V128a128 128 0 0 1 128-128h768a128 128 0 0 1 128 128v704a128 128 0 0 1-128 128h-29.44z m0 0v-64H896a64 64 0 0 0 64-64V128a64 64 0 0 0-64-64H128a64 64 0 0 0-64 64v704a64 64 0 0 0 64 64h622.912v64H128a128 128 0 0 1-128-128V128a128 128 0 0 1 128-128h768a128 128 0 0 1 128 128v704a128 128 0 0 1-128 128h-29.44z" fill="#1296db" p-id="12196"></path><path d="M284.416 241.088a32 32 0 1 1 0 64H170.688a32 32 0 1 1 0-64h113.728zM568.896 241.088a32 32 0 1 1 0 64H455.04a32 32 0 0 1 0-64H568.96zM853.312 241.088a32 32 0 1 1 0 64h-113.728a32 32 0 1 1 0-64h113.728zM284.416 445.888a32 32 0 1 1 0 64H170.688a32 32 0 1 1 0-64h113.728zM568.896 445.888a32 32 0 1 1 0 64H455.04a32 32 0 0 1 0-64H568.96zM284.416 650.688a32 32 0 1 1 0 64H170.688a32 32 0 0 1 0-64h113.728zM568.896 650.688a32 32 0 1 1 0 64H455.04a32 32 0 0 1 0-64H568.96zM801.024 473.6a54.208 54.208 0 0 0-54.208 54.208v335.744l54.208 82.24 54.208-82.24V527.808a54.208 54.208 0 0 0-54.208-54.208z m0-64c65.28 0 118.208 52.928 118.208 118.208v335.744a64 64 0 0 1-10.56 35.2l-54.208 82.24a64 64 0 0 1-106.88 0l-54.208-82.24a64 64 0 0 1-10.56-35.2V527.808c0-65.28 52.928-118.208 118.208-118.208z" fill="#1296db" p-id="12197"></path></svg>