<?xml version="1.0" standalone="no"?><!DOCTYPE svg PUBLIC "-//W3C//DTD SVG 1.1//EN" "http://www.w3.org/Graphics/SVG/1.1/DTD/svg11.dtd"><svg t="1585645811904" class="icon" viewBox="0 0 1024 1024" version="1.1" xmlns="http://www.w3.org/2000/svg" p-id="4441" xmlns:xlink="http://www.w3.org/1999/xlink" width="200" height="200"><defs><style type="text/css"></style></defs><path d="M839 73.9c-1.2-2.4-3.7-9.8-7.4-9.8s-11.1 8.6-13.5 12.3l-13.5 12.3c-7.4-6.1-35.6-23.4-43-23.4-11.1 0-104.6 113.2-118.1 129.1l-60.2 68.8-30.7 38.1-43.1-83.6-50.4-100.8c-4.9-9.8-8.6-22.1-22.1-22.1-7.3 0-9.8 3.6-13.5 9.8-3.7 4.9-3.7 4.9-11.1 8.6-8.6 0-12.3 0-19.7 6.2-6.2-4.9-11.1-11.1-19.7-11.1-3.7 0-6.2 1.2-8.6 3.6l-8.6 7.4c-4.8 6.1-15.9 17.2-15.9 25.8 0 11 9.8 31.9 13.5 41.8l90.9 250.8-14.7 17.3c-66.4 79.8-159.8 190.5-210.2 279l-29.5 50.4c-8.6 14.7-29.5 44.3-29.5 60.2 0 3.7 3.8 6.2 6.2 8.6 8.6 7.3 3.6 14.7 1.2 24.5-2.5 7.4-3.7 12.3-3.7 19.7 0 13.5 11.1 27 18.5 38.1 7.3 12.2 9.9 24.5 25.8 24.5 17.2 0 49.2-3.6 63.9-14.7l243.4-377.5 115.6 178.5c6.1 9.8 30.7 54.1 46.7 54.1 14.8 0 38.1-16.1 40.6-30.8-2.6-4.9-6.2-12.3-6.2-17.2 0-7.5 19.7-14.9 24.6-19.7v-9.9c8.6-3.7 13.5-8.6 17.2-17.2l-95.9-205.3-38.2-76.3 13.6-19.7 174.6-225.9c11-14.8 28.3-38.1 41.8-50.4 4.9-5 13.5-12.3 13.5-19.7 0-8.6-19.7-22.1-24.6-34.4z" p-id="4442" fill="#ff0000"></path></svg>