<?xml version="1.0" standalone="no"?><!DOCTYPE svg PUBLIC "-//W3C//DTD SVG 1.1//EN" "http://www.w3.org/Graphics/SVG/1.1/DTD/svg11.dtd"><svg t="1585645768194" class="icon" viewBox="0 0 1024 1024" version="1.1" xmlns="http://www.w3.org/2000/svg" p-id="2260" xmlns:xlink="http://www.w3.org/1999/xlink" width="200" height="200"><defs><style type="text/css"></style></defs><path d="M341.6 780.1c39.5-88.9 82.1-174.6 127.8-257.4 45.7-82.6 94.7-161 147.3-235.3 52.6-74.3 92.8-125.1 120.4-152.7s46.8-43.7 57.5-48.4c10.6-4.7 34-9.6 70.3-14.7s61.1-7.7 74.6-7.7c8.5 0 12.9 3.3 12.9 9.8 0 4.1-1.5 8.1-4.6 11.9-3 3.9-11.9 12.4-26.5 25.3-73.7 68.6-154.8 169.6-243.1 303.4C589.8 548.2 516 688.6 456.5 835.8c-24.1 58.8-40.5 94-49.5 105.8-9 12.3-37.3 18.3-84.9 18.3-34.2 0-54.7-3.5-61.4-10.4s-20.2-25.8-40.7-56.8c-33.4-51.6-72-100.5-115.4-146.4-22-23.1-32.9-40.7-32.9-52.5 0-16.2 11.9-32.8 36-49.8 23.9-16.9 43.8-25.3 59.7-25.3 20.3 0 45.3 11.2 74.9 33.5 29.6 22.9 62.7 65.4 99.3 127.9z" p-id="2261" fill="#1afa29"></path></svg>