<?xml version="1.0" standalone="no"?><!DOCTYPE svg PUBLIC "-//W3C//DTD SVG 1.1//EN" "http://www.w3.org/Graphics/SVG/1.1/DTD/svg11.dtd"><svg t="1585292163411" class="icon" viewBox="0 0 1024 1024" version="1.1" xmlns="http://www.w3.org/2000/svg" p-id="21352" xmlns:xlink="http://www.w3.org/1999/xlink" width="32" height="32"><defs><style type="text/css"></style></defs><path d="M927.6 773.5l-0.6-1-84.4-108.3V408.7c0-34.3-5.8-67.9-17.2-99.9-11-30.9-27.1-59.7-47.7-85.4-38.1-47.6-90.4-82.7-148.4-99.7-7-50.1-50.1-88.8-102.1-88.8-52 0-95.1 38.7-102.1 88.8-58.1 17.1-110.4 52.1-148.4 99.7-20.6 25.8-36.6 54.5-47.7 85.4-11.4 32-17.2 65.6-17.2 99.9v255.5l-84.4 108.3-0.6 1c-6.9 11.2-7.3 24.9-1.2 36.6 6 11.5 17.2 18.7 30 19.5 0.7 0 1.5 0.1 2.3 0.1h230.6c5.1 29.2 19.3 56 41 76.9 26.4 25.4 61.1 39.4 97.7 39.4s71.3-14 97.7-39.4c21.7-20.9 35.9-47.7 41-76.9h230.6c0.8 0 1.5 0 2.2-0.1 12.8-0.7 24.1-8 30.1-19.5 6.1-11.7 5.6-25.4-1.2-36.6zM527.1 905.9c-47.2 0-86.7-32-97.8-75.9h195.6c-11 43.8-50.6 75.9-97.8 75.9zM164.7 789.6l81-103.9 0.6-1c3.5-5.8 5.4-12.5 5.4-19.3V408.7c0-119.4 81-222.2 197-249.9l15.3-3.7V138c0-34.8 28.3-63.1 63.1-63.1s63.1 28.3 63.1 63.1v17.1l15.3 3.7c116 27.7 197 130.5 197 249.9v256.7c0 6.8 1.9 13.5 5.4 19.3l0.6 1 81 103.9H164.7z" fill="#1296db" p-id="21353"></path></svg>