<?xml version="1.0" standalone="no"?><!DOCTYPE svg PUBLIC "-//W3C//DTD SVG 1.1//EN" "http://www.w3.org/Graphics/SVG/1.1/DTD/svg11.dtd"><svg t="1585292083728" class="icon" viewBox="0 0 1025 1024" version="1.1" xmlns="http://www.w3.org/2000/svg" p-id="20513" xmlns:xlink="http://www.w3.org/1999/xlink" width="32.03125" height="32"><defs><style type="text/css"></style></defs><path d="M825.021149 876.80736C825.046748 876.832958 825.328334 876.960952 825.328334 876.960952 825.328334 876.960952 817.904705 884.256587 804.234988 895.212839 804.234988 895.212839 802.212689 895.212839 802.212689 895.212839 718.120894 959.644818 613.294135 998.350082 499.175041 998.350082 385.081546 998.350082 280.229189 959.644818 196.162992 895.212839 196.162992 895.212839 186.947453 895.212839 186.947453 895.212839 174.736863 885.79251 165.956502 878.624869 165.956502 878.624869 165.956502 878.624869 168.746763 877.524124 172.509775 876.039398 67.017449 784.498375 0 649.79791 0 499.175041 0 223.476826 223.502425 0 499.175041 0 774.873256 0 998.350082 223.476826 998.350082 499.175041 998.350082 650.20749 930.99985 785.266337 825.021149 876.80736ZM503.526824 951.19724C591.151242 951.19724 672.657567 925.649718 741.697315 882.157492 716.431378 873.377131 689.39913 866.055897 661.061347 860.552172 602.619469 849.160742 573.79531 814.884056 570.288286 752.730363 570.185891 751.629619 569.827509 748.813759 569.545923 746.535473 568.419579 737.575921 566.730063 724.059797 565.987701 711.721214 565.091745 696.720364 563.19744 665.489926 590.178491 651.922604 590.588071 651.564222 594.018299 648.210789 597.294935 636.20499 600.59717 624.173591 601.979501 609.889506 602.977851 599.445228 605.281736 575.177641 615.572421 559.716014 623.098445 548.426979 625.299935 545.099145 627.39903 541.976101 629.165342 538.80186 629.165342 538.80186 629.19094 538.750662 629.19094 538.750662 629.19094 538.750662 629.216539 538.725064 629.216539 538.725064 635.565022 527.487226 639.507225 513.049548 643.705415 497.79271 644.345383 495.412029 645.010949 493.031348 645.676516 490.650667 645.676516 490.650667 645.676516 490.625069 645.676516 490.625069 645.676516 490.625069 645.676516 490.59947 645.676516 490.59947 645.676516 490.59947 646.342083 488.295585 646.342083 488.295585 648.108395 481.947103 653.509725 462.850457 653.100145 455.99 652.664967 454.428479 651.077846 450.844658 649.925904 448.182391 645.650917 438.506075 639.814409 425.245938 639.814409 408.504375 639.814409 393.324334 642.911854 379.19384 645.650917 366.701665 647.186841 359.636418 648.671566 352.980751 649.260337 347.425829 652.127394 321.187141 651.257037 296.356382 646.726064 273.59912 641.964702 249.869107 628.909355 231.975601 605.588921 217.307535 584.981951 204.328984 557.488926 194.447878 519.065247 186.230688 511.948803 184.720364 504.345983 183.952402 496.461577 183.952402 453.865307 183.952402 403.435828 206.60727 370.976651 240.320784 358.663667 253.145743 340.027799 272.549573 338.159092 287.064047 335.445628 308.106195 335.727214 334.114494 338.850257 354.977451 340.130193 363.297035 341.026149 371.437428 341.922104 379.296235 342.510874 384.441578 343.048448 389.305335 343.688416 394.117894 343.918804 394.962652 344.533173 396.60097 344.968352 397.855307 348.270586 406.968452 353.79991 422.225289 348.833758 440.886756 348.833758 440.886756 348.80816 440.963552 348.80816 440.963552 348.80816 440.963552 348.782561 441.065947 348.782561 441.065947 346.350682 449.974301 342.536473 456.962752 339.746213 462.056897 339.029449 463.388031 338.363882 464.642368 337.877506 465.589521 337.877506 465.589521 337.851907 465.615119 337.851907 465.615119 337.851907 465.615119 337.826309 465.666317 337.826309 465.666317 336.776761 467.816609 332.373781 480.385581 350.779261 518.476476 355.975801 529.099945 360.99315 537.368332 366.164092 543.691215 384.646368 566.243688 385.388731 586.082696 386.028699 603.59222 386.489476 616.084396 388.562972 629.088546 391.711614 639.20004 395.269837 650.642668 399.263237 655.378431 400.415179 656.19759 400.415179 656.19759 400.440778 656.19759 400.440778 656.19759 431.568822 671.864007 426.013899 708.034998 420.151792 746.330683 419.79341 748.736963 419.332633 751.706415 419.153442 753.037548 418.923054 757.875706 418.769462 762.457877 418.615869 766.886456 417.463927 800.855957 415.928004 847.368832 348.39858 860.552172 319.446428 866.183891 291.851007 873.633118 266.175491 882.669467 335.036048 925.828909 416.235188 951.19724 503.526824 951.19724ZM503.526824 55.242038C256.115194 55.242038 55.549223 255.80801 55.549223 503.219639 55.549223 645.958102 122.541073 772.825359 226.548673 854.869257 238.068097 850.389481 247.872406 846.60087 251.353832 845.372131 280.433978 835.081446 310.435678 827.145843 340.718964 821.258137 382.291285 813.168942 376.915554 793.585921 379.245038 750.042498 379.60342 743.745213 389.100545 695.312434 382.470476 691.984601 354.900655 678.238088 347.041848 632.313984 346.017899 605.025749 345.454727 589.589721 345.096345 581.116544 335.215239 569.085146 326.99805 559.024849 320.419179 547.531023 314.761862 535.883606 302.80726 511.180841 288.651167 474.574671 302.039298 447.79841 304.855157 442.089896 308.490175 436.714164 310.154092 430.570471 312.944353 420.100595 305.418329 410.296285 304.087196 399.954402 302.372081 387.00145 301.245738 373.920504 299.274636 360.967552 295.588421 336.341583 295.255637 306.80066 298.455477 281.969902 301.936903 254.988851 324.079796 231.386831 342.152492 212.571771 379.347433 173.943303 439.453227 143.916004 496.461577 143.916004 506.957052 143.916004 517.324534 144.939953 527.436028 147.090245 596.552572 161.886306 670.737663 189.635318 685.968902 265.765912 691.626219 294.078096 692.189391 323.107045 689.066347 351.752012 687.044048 370.336683 679.850807 389.945303 679.850807 408.504375 679.850807 422.967652 690.064697 435.459827 692.522174 449.00155 695.210039 463.644018 688.19599 487.220439 684.228189 501.40213 678.826859 520.780361 674.039898 540.747363 664.081996 558.410479 654.99445 574.563272 644.703765 583.522824 642.80946 603.285036 640.249588 630.035698 635.769812 673.860707 608.19999 687.658417 601.544323 690.960652 609.863907 743.745213 610.222289 750.042498 612.577371 793.585921 627.143043 813.168942 668.715364 821.258137 698.99865 827.145843 728.974751 835.081446 758.054897 845.372131 760.358782 846.19129 769.369532 850.338283 779.941803 855.304435 884.256587 773.286136 951.504425 646.239688 951.504425 503.219639 951.504425 255.80801 750.938453 55.242038 503.526824 55.242038Z" p-id="20514" fill="#1296db"></path></svg>